 http://img708.imageshack.us/img708/8600/fastfive2011.jpg

Country.......: USA
Genre.........: Action, Crime, Thriller, Drama
Date release..: 15.04.2011 [World]
Director......: Justin Lin
Writers.......: Chris Morgan, Gary Scott Thompson
Duration......: 119 min.
More..........: http://www.imdb.com/title/tt1596343
Trailer.......: http://www.imdb.com/video/imdb/vi1723702553
Trailer.......:

Pilot :
Back to the already released the next section, this time to continue with 5-speed, crayons and markers painted cars. Is this time they manage to beat the speed of light, to go into space. In the film, well-known actors are back and starting to race again. Look just as the rise of part 6.

Cats :
Vin Diesel   	 ...  	Dominic Toretto
Paul Walker 	... 	Brian O'Conner
Jordana Brewster 	... 	Mia
Tyrese Gibson 	... 	Roman
Ludacris 	... 	Tej (as Chris 'Ludacris' Bridges)
Matt Schulze 	... 	Vince
Sung Kang 	... 	Han
Gal Gadot 	... 	Gisele
Tego Calderon 	... 	Leo
Don Omar 	... 	Santos
Joaquim de Almeida 	... 	Reyes
Dwayne Johnson 	... 	Hobbs
Elsa Pataky 	... 	Elena
Michael Irby 	... 	Zizi
Fernando Chien 	... 	Wilkes 

Data Technical :
!!! SAMPLE !!!
Audio.....: English
Subtitles.: None
Format                           : AVI
Format/Info                      : Audio Video Interleave
File size                        : 1.39 GiB
Duration                         : 1h 58mn
Overall bit rate                 : 1 680 Kbps
Writing library                  : VirtualDub build 32706/release
Video
ID                               : 0
Format                           : MPEG-4 Visual
Format profile                   : Advanced Simple@L5
Format settings, BVOP            : Yes
Format settings, QPel            : No
Format settings, GMC             : No warppoints
Format settings, Matrix          : Default (MPEG)
Muxing mode                      : Packed bitstream
Codec ID                         : XVID
Codec ID/Hint                    : XviD
Duration                         : 1h 58mn
Bit rate                         : 1 542 Kbps
Width                            : 640 pixels
Height                           : 352 pixels
Display aspect ratio             : 16:9
Frame rate                       : 23.976 fps
Color space                      : YUV
Chroma subsampling               : 4:2:0
Bit depth                        : 8 bits
Scan type                        : Progressive
Bits/(Pixel*Frame)               : 0.286
Stream size                      : 1.28 GiB (92%)
Writing library                  : XviD 61
Audio
ID                               : 1
Format                           : MPEG Audio
Format version                   : Version 1
Format profile                   : Layer 3
Mode                             : Joint stereo
Mode extension                   : MS Stereo
Codec ID                         : 55
Codec ID/Hint                    : MP3
Duration                         : 1h 58mn
Bit rate mode                    : Constant
Bit rate                         : 128 Kbps
Channel(s)                       : 2 channels
Sampling rate                    : 44.1 KHz
Video delay                      : 16ms
Stream size                      : 109 MiB (8%)
Alignment                        : Split accross interleaves
Interleave, duration             : 42 ms (1.00 video frame)

Screen : 
http://img94.imageshack.us/img94/745/fastfive2011s5.jpg 
http://img684.imageshack.us/img684/7633/fastfive2011s1.jpg 
http://img860.imageshack.us/img860/8995/fastfive2011s2.jpg 
http://img822.imageshack.us/img822/8717/fastfive2011s3.jpg 
http://img190.imageshack.us/img190/1455/fastfive2011s4.jpg